<svg version="1.1" id="Layer_1" xmlns="http://www.w3.org/2000/svg" xmlns:xlink="http://www.w3.org/1999/xlink" x="0px" y="0px"
	 width="100%" viewBox="0 0 1024 1024" enable-background="new 0 0 1024 1024" xml:space="preserve">
<path fill="#000000" opacity="1.000000" stroke="none" 
	d="
M182.669464,329.999939 
	C182.668488,299.333923 182.603012,269.167786 182.689117,239.002045 
	C182.751251,217.230515 198.161697,200.037994 219.694107,197.712540 
	C223.352356,197.317444 224.829300,195.928375 225.214691,192.209808 
	C225.938370,185.226715 228.787613,182.840073 235.619034,182.782333 
	C244.118271,182.710495 252.620132,182.651215 261.117706,182.785751 
	C266.982483,182.878586 270.279205,185.643188 270.145447,191.162506 
	C270.018555,196.399338 272.410065,197.098007 276.812775,197.086594 
	C329.311340,196.950378 381.810333,196.894272 434.309021,196.965408 
	C451.864166,196.989197 465.572968,204.139114 474.032227,219.983047 
	C477.720398,226.890854 478.922882,234.464935 478.937164,242.201584 
	C479.010132,281.700562 479.185089,321.200470 478.986328,360.698334 
	C478.847046,388.381531 460.620514,406.126434 432.842316,406.117676 
	C364.343933,406.096069 295.845398,406.065674 227.347198,405.921722 
	C205.804062,405.876465 189.664612,394.127289 183.990768,374.865479 
	C183.040726,371.640289 182.653748,368.362244 182.665466,364.999023 
	C182.705536,353.499451 182.674042,341.999664 182.669464,329.999939 
M269.223267,240.717880 
	C249.354034,262.173370 242.220032,287.565369 247.726440,315.970764 
	C255.909546,358.184357 294.727539,386.734192 338.465424,383.684265 
	C378.300568,380.906494 412.822418,345.566833 415.631958,304.689667 
	C418.917267,256.890717 379.533508,214.424377 331.606232,214.370728 
	C307.466034,214.343704 286.825836,223.170105 269.223267,240.717880 
M442.324799,223.230850 
	C436.211395,222.035080 431.171295,224.613388 429.013000,230.040649 
	C426.856689,235.462967 428.560699,240.995407 433.335022,244.073273 
	C438.756256,247.568176 446.202484,245.755051 449.381439,240.166000 
	C453.040497,233.732819 450.583008,227.231888 442.324799,223.230850 
z"/>
<path fill="#000000" opacity="1.000000" stroke="none" 
	d="
M679.429688,757.472839 
	C638.935181,786.845032 594.171326,804.880005 544.856506,810.275146 
	C456.710815,819.918640 379.210876,794.551331 312.681152,736.289978 
	C260.626678,690.705078 230.192444,632.775574 219.083160,564.831604 
	C211.576645,518.922058 215.248962,473.568939 229.866776,429.269867 
	C230.721970,426.678192 230.662796,423.184387 234.895279,422.750793 
	C244.530960,421.763763 245.416168,422.839172 242.325516,431.903229 
	C230.232254,467.369659 226.329712,503.800995 228.983871,541.124146 
	C230.756622,566.052673 236.027603,590.134766 244.413010,613.603577 
	C244.860107,614.854980 245.364487,616.089539 245.916977,617.297668 
	C246.114853,617.730347 246.534027,618.061707 247.334259,619.011414 
	C259.730316,610.425354 271.030670,600.350891 283.926025,592.803345 
	C289.044189,598.565857 288.899719,599.455811 283.091461,603.531616 
	C280.479828,605.364258 276.786957,606.701477 279.045044,611.230896 
	C280.584167,614.318237 282.235443,615.436890 285.628235,613.255249 
	C292.612640,608.764099 292.580658,608.970032 295.672302,616.803101 
	C300.880096,629.997742 307.666565,642.431335 314.562347,654.791199 
	C317.927795,660.823303 317.980835,660.590881 312.504211,664.579712 
	C304.024445,670.755798 295.739532,677.198853 287.298065,683.428589 
	C284.373718,685.586731 284.235291,687.564209 286.474823,690.434814 
	C298.619781,706.002258 312.338745,720.011292 327.417236,732.739685 
	C329.846497,734.790283 332.092682,734.512451 334.814758,733.879333 
	C375.484802,724.420288 416.186432,715.096985 456.851288,705.615601 
	C528.928345,688.810242 600.973938,671.869507 673.057800,655.093201 
	C695.746033,649.812866 718.624390,645.272034 740.395447,636.671326 
	C748.308533,633.545227 755.866211,629.685364 763.310486,625.565063 
	C766.905090,623.575439 769.030151,620.738159 770.358032,616.950562 
	C777.873169,595.515503 783.340210,573.589172 785.584229,550.970703 
	C789.171448,514.815002 786.240417,479.194397 776.080872,444.228821 
	C764.791809,405.375977 745.754761,370.707855 719.242920,340.253326 
	C677.608093,292.427063 625.796143,261.583008 563.546143,248.921219 
	C543.310059,244.805176 522.788818,242.492783 502.026917,243.949020 
	C499.099792,244.154327 495.930664,244.822311 495.678711,239.997162 
	C495.262085,232.017563 495.241516,231.418793 501.100372,231.219193 
	C526.699280,230.347015 552.045166,232.644073 576.873779,238.962372 
	C664.382263,261.231201 728.163757,313.440887 769.560059,393.215485 
	C785.348083,423.640564 794.651001,456.283630 798.018860,490.393250 
	C803.791443,548.858337 793.993469,604.487305 766.401062,656.690430 
	C745.178162,696.842773 716.291992,730.355164 679.429688,757.472839 
M641.491455,740.906555 
	C639.344788,731.498230 637.205322,722.088257 635.049072,712.682129 
	C633.307617,705.085144 629.063843,702.408752 621.631165,704.155334 
	C594.251465,710.589111 566.879578,717.056458 539.485413,723.427917 
	C516.304260,728.819580 493.095734,734.092957 469.900818,739.425293 
	C462.598541,741.104004 459.180725,744.998962 460.511139,751.061340 
	C463.613220,765.196716 467.073303,779.253357 470.356171,793.349365 
	C471.061554,796.378052 472.839142,797.480164 475.969086,797.864258 
	C498.565002,800.637512 521.115845,800.526245 543.721802,797.871216 
	C578.385437,793.799927 610.943420,783.320312 641.634338,766.761841 
	C645.484253,764.684692 646.373352,762.208984 645.381958,758.277832 
	C643.999390,752.795654 642.867065,747.250366 641.491455,740.906555 
M726.591003,679.192810 
	C723.086548,680.235291 719.625000,681.461731 716.070618,682.289612 
	C695.828247,687.004272 675.561584,691.614563 655.307800,696.280090 
	C647.503540,698.077820 644.914795,701.931641 646.588989,709.629578 
	C649.485352,722.946777 652.480164,736.243103 655.519348,749.528564 
	C657.176392,756.771973 657.892212,756.960876 664.126648,752.667358 
	C689.543579,735.163330 712.170715,714.779785 730.208984,689.518250 
	C732.913940,685.730164 735.101379,682.354919 733.100525,677.527222 
	C731.191650,677.997620 729.258484,678.473938 726.591003,679.192810 
M385.704987,770.786499 
	C405.995880,780.603455 426.964905,788.500549 449.068817,793.192749 
	C456.183838,794.703125 457.732880,793.237122 456.217896,786.253418 
	C454.067902,776.342712 451.941498,766.425781 449.660828,756.544800 
	C447.874390,748.804932 443.544952,746.083252 435.680481,747.811462 
	C423.828308,750.416077 412.015411,753.199585 400.186432,755.909729 
	C393.702362,757.395325 387.212372,758.856384 380.740723,760.394409 
	C378.882629,760.836060 377.289062,761.779236 376.970367,763.904114 
	C376.649353,766.044373 378.419342,766.715820 379.798676,767.558044 
	C381.501465,768.597717 383.285065,769.505066 385.704987,770.786499 
M288.426697,621.873840 
	C286.174957,623.586121 283.857880,625.220093 281.688232,627.030762 
	C279.064270,629.220581 278.244293,631.896484 280.185760,634.984131 
	C284.528259,641.890320 288.887939,648.785828 293.270325,655.666687 
	C294.502594,657.601501 296.591217,658.737427 298.320740,657.189270 
	C301.312073,654.511475 303.684692,650.623047 303.317352,646.815125 
	C302.817627,641.634827 301.267303,636.317566 299.008240,631.616150 
	C296.980011,627.395264 296.289307,620.979126 288.426697,621.873840 
M277.001129,646.458435 
	C276.122009,645.045471 275.303741,643.590027 274.351929,642.227844 
	C271.862061,638.664185 267.603394,638.540100 264.816406,641.927063 
	C263.368652,643.686462 262.991547,645.764465 262.969452,647.999084 
	C262.896973,655.331116 266.636627,661.019043 271.011810,666.336792 
	C273.016632,668.773438 280.839447,670.326782 282.673737,669.093323 
	C284.856812,667.625427 285.427460,661.012573 283.471405,657.393677 
	C281.574036,653.883423 279.424866,650.509216 277.001129,646.458435 
M456.932953,716.236389 
	C455.493500,716.583435 454.633301,717.333008 454.581879,718.970642 
	C454.287140,728.362732 457.654724,731.165588 466.803406,729.081360 
	C468.097687,728.786438 469.391388,728.470032 470.701416,728.267273 
	C473.861359,727.778259 474.589233,726.286011 473.842255,723.068481 
	C471.544830,713.173035 471.694336,713.136475 461.567169,715.197876 
	C460.267731,715.462402 458.974365,715.756775 456.932953,716.236389 
M431.975372,737.318726 
	C433.735443,736.858765 435.470978,736.208923 437.260651,735.977844 
	C441.190674,735.470276 441.981079,733.562378 441.138306,729.790466 
	C439.005402,720.244202 439.170258,720.208252 429.524353,722.581726 
	C428.080139,722.937134 426.610931,723.209961 425.194427,723.652710 
	C424.106323,723.992737 422.689362,724.360657 422.605682,725.674683 
	C422.350342,729.686951 423.183655,733.692017 424.874481,737.190002 
	C426.179382,739.889648 429.049408,737.261963 431.975372,737.318726 
M728.572815,652.017761 
	C724.581543,653.121521 720.588379,654.218506 716.599915,655.332214 
	C714.951782,655.792419 713.012390,656.403503 713.600037,658.523010 
	C714.646851,662.299072 714.741394,666.374084 717.016174,670.317871 
	C721.656372,668.989136 726.258179,667.710938 730.830078,666.333557 
	C731.924866,666.003723 733.272583,665.390015 732.951660,663.976807 
	C732.026001,659.900696 732.223755,655.455566 728.572815,652.017761 
M619.846924,678.317993 
	C617.341614,678.710266 615.744080,679.938110 616.423279,682.690613 
	C617.250000,686.041138 617.366455,689.591125 619.200562,693.088196 
	C624.141968,692.804871 628.845093,691.156311 633.627686,689.993774 
	C635.714233,689.486511 635.727539,687.744324 635.536438,685.970520 
	C634.432983,675.727173 633.514465,675.065918 623.545715,677.464111 
	C622.576111,677.697388 621.610535,677.947815 619.846924,678.317993 
M682.045959,669.764160 
	C683.765015,678.319275 683.768188,678.333740 692.046936,676.529907 
	C693.989258,676.106628 695.883728,675.451050 697.833923,675.079712 
	C700.386658,674.593628 701.108582,673.084473 700.499207,670.760498 
	C697.165344,658.047363 700.164551,660.108276 688.267883,662.354675 
	C687.292542,662.538879 686.352661,662.952271 685.373718,663.067932 
	C681.587158,663.515198 680.640869,665.603638 682.045959,669.764160 
M399.912445,729.607544 
	C399.108032,729.810852 398.311157,730.052856 397.498047,730.211487 
	C389.633270,731.745544 389.632507,731.741516 391.229401,739.506165 
	C392.626953,746.301575 392.624573,746.291016 399.272675,744.800049 
	C401.376831,744.328125 403.489868,743.887634 405.612061,743.506287 
	C408.817535,742.930115 410.382324,741.417908 409.113770,737.980713 
	C408.656799,736.742615 408.268982,735.419373 408.185486,734.113525 
	C407.858307,728.996277 405.432922,727.411560 399.912445,729.607544 
M363.202271,753.050171 
	C365.961334,752.430176 368.693207,751.602234 371.485596,751.236572 
	C376.256775,750.611694 377.488586,748.351196 376.335999,743.678894 
	C374.350830,735.631409 374.581848,735.572449 366.232788,737.296936 
	C365.256073,737.498718 364.262360,737.661438 363.318665,737.970764 
	C361.236664,738.653259 357.422180,738.330505 357.975098,741.164429 
	C358.779846,745.288940 357.240295,750.666870 363.202271,753.050171 
M528.064575,699.663391 
	C518.243713,702.240051 518.275635,700.079956 521.132996,711.698792 
	C521.329895,712.499207 521.406616,713.396912 521.838196,714.052490 
	C522.249878,714.677795 523.153320,715.550171 523.667908,715.447632 
	C528.359802,714.512573 533.022827,713.423584 537.664856,712.261780 
	C538.110229,712.150330 538.639526,711.246216 538.649170,710.701538 
	C538.720703,706.661987 537.819092,702.600647 535.812256,699.317566 
	C534.347595,696.921387 531.244141,699.561157 528.064575,699.663391 
M656.155884,669.706665 
	C654.399963,670.169861 652.637085,670.608643 650.890198,671.103882 
	C649.491882,671.500366 648.356689,672.286926 648.793762,673.921387 
	C649.769653,677.569824 649.278503,682.029236 651.885864,684.694702 
	C654.080444,686.938171 657.400574,684.065308 660.263611,683.755554 
	C662.055969,683.561646 663.820984,683.022766 665.568237,682.531799 
	C667.103821,682.100281 668.030334,681.313477 668.037842,679.385864 
	C668.072998,670.407532 665.318298,667.880432 656.155884,669.706665 
M487.991791,716.747070 
	C488.538361,718.936707 488.372925,721.379211 490.463593,723.399719 
	C492.710724,722.886292 495.099060,722.327942 497.493256,721.795837 
	C507.383301,719.597900 506.821167,720.935791 504.927155,710.849243 
	C504.093231,706.408142 502.340790,705.231079 498.299927,706.514038 
	C496.571930,707.062622 494.792297,707.453186 493.028015,707.882080 
	C486.493591,709.470398 486.492310,709.465149 487.991791,716.747070 
M589.771301,685.323975 
	C587.670471,686.398499 583.873108,685.038696 583.799011,689.020264 
	C583.617920,698.757446 586.520569,701.050598 595.845032,698.842041 
	C604.202271,696.862488 603.967468,696.919128 602.010559,688.800781 
	C600.992249,684.576233 599.301697,682.719604 594.921631,684.210815 
	C593.525330,684.686157 592.029053,684.867676 589.771301,685.323975 
M567.084290,705.620728 
	C570.622742,705.094238 571.383118,702.783997 570.481018,699.814392 
	C567.662720,690.536987 569.832336,689.940491 559.251526,692.319763 
	C557.472412,692.719788 555.677917,693.059082 553.914246,693.517639 
	C552.295410,693.938599 551.471375,694.847473 551.597412,696.748291 
	C552.303833,707.400635 554.054993,708.740601 564.355774,706.244080 
	C565.000916,706.087769 565.643982,705.923096 567.084290,705.620728 
M750.818237,643.345093 
	C744.819580,646.247375 744.334839,651.696899 749.794189,658.591797 
	C754.560059,653.052856 757.009766,646.503296 759.170288,639.666260 
	C756.617432,640.805725 754.064514,641.945129 750.818237,643.345093 
M271.934174,622.982849 
	C270.222565,615.135864 267.847839,614.179932 261.968018,618.973328 
	C261.581360,619.288574 261.238220,619.664978 260.826355,619.940552 
	C256.933319,622.545776 258.807159,625.286987 260.648743,627.994202 
	C262.837433,631.211731 264.697937,628.598816 266.459991,627.490540 
	C268.278992,626.346436 269.878754,624.853760 271.934174,622.982849 
z"/>
<path fill="#000000" opacity="1.000000" stroke="none" 
	d="
M575.596375,651.683472 
	C568.631958,655.930786 561.694824,659.106567 553.628845,657.911072 
	C542.565491,656.271301 535.213013,648.643188 533.566528,637.382019 
	C533.280090,635.422913 532.893799,633.478394 532.564636,631.590393 
	C530.420837,630.527466 528.899475,631.998291 527.253601,632.529419 
	C501.735596,640.764893 477.944092,638.149597 456.725494,620.894897 
	C449.001282,614.613708 444.486511,606.026550 442.001160,596.460632 
	C440.997803,592.598938 442.455139,589.482300 446.342865,588.036682 
	C449.928558,586.703308 453.991028,588.645325 455.066406,592.610046 
	C459.731934,609.810974 472.247894,618.072815 488.412354,622.020142 
	C502.008972,625.340454 515.127808,623.510437 527.793579,617.569031 
	C531.632629,615.768127 532.990662,613.340759 532.975830,609.061035 
	C532.805054,559.747803 532.821228,510.433899 532.817688,461.120178 
	C532.817383,456.799500 532.650574,452.476074 533.554626,448.179321 
	C536.915894,432.203979 552.218628,424.084930 567.255920,430.505249 
	C570.609680,431.937164 573.810852,433.786377 576.926697,435.697052 
	C579.524902,437.290344 581.064453,436.965393 583.159546,434.526367 
	C598.396667,416.788483 625.228638,412.176514 645.427368,423.965302 
	C661.054871,433.086121 667.126465,448.021027 669.322510,465.108032 
	C670.114929,471.273315 669.612732,477.418060 669.151184,483.542664 
	C668.889221,487.018127 670.018311,489.086365 673.033936,490.780914 
	C690.021423,500.326843 706.933289,510.007385 723.858643,519.663574 
	C728.631775,522.386780 733.540283,524.973816 736.793396,529.651794 
	C745.391479,542.015686 741.756592,556.804016 728.172974,564.563721 
	C713.714172,572.823425 699.196594,580.980164 684.738342,589.240723 
	C648.452271,609.972351 612.185303,630.737305 575.596375,651.683472 
M644.361389,474.067047 
	C648.797180,476.593048 653.232910,479.119080 657.668396,481.644958 
	C663.406860,471.105286 656.851562,446.765503 646.025146,436.849945 
	C636.742737,428.348511 620.506775,424.680145 613.263367,429.447723 
	C627.850098,442.515259 631.306396,446.723358 633.558289,460.541809 
	C634.683105,467.443787 637.796082,471.275421 644.361389,474.067047 
z"/>
<path fill="#000000" opacity="1.000000" stroke="none" 
	d="
M376.018982,812.100952 
	C370.606995,809.416809 365.426941,807.086304 360.502289,804.303833 
	C355.774963,801.632874 351.065735,799.536316 345.440125,799.938293 
	C342.579193,800.142639 340.059570,799.157654 339.978180,795.572632 
	C339.928864,793.399109 338.366364,792.401855 336.859955,791.357239 
	C329.467255,786.230713 322.072937,781.106384 314.660309,776.008667 
	C311.334747,773.721680 307.337402,773.981628 304.213226,775.328369 
	C300.652679,776.863220 301.388641,780.798706 301.957092,784.221741 
	C302.937012,790.122620 303.325592,796.252686 311.954681,798.427551 
	C305.381714,801.576477 300.184753,801.581604 294.981873,800.600769 
	C292.439972,800.121460 291.790619,797.827271 291.915436,795.509033 
	C292.115387,791.795288 291.231934,788.218994 290.708435,784.601929 
	C289.800415,778.328003 287.415588,775.664001 281.161804,774.903442 
	C275.389771,774.201416 269.498962,774.461609 263.732758,773.729065 
	C253.359909,772.411377 242.843933,771.957458 232.700394,769.115295 
	C230.399979,768.470764 229.274857,769.860046 228.219925,771.395081 
	C226.942795,773.253479 228.121460,774.435669 229.475800,775.604065 
	C231.923325,777.715637 234.991364,778.673645 237.757507,780.189758 
	C240.249466,781.555542 242.723511,782.940552 244.571808,785.174988 
	C245.484848,786.278809 247.099030,787.313110 245.761551,788.974915 
	C244.614807,790.399719 243.019440,789.856873 241.610489,789.267395 
	C237.108170,787.383850 232.796722,785.047607 229.674911,781.262390 
	C224.922546,775.500305 219.859985,769.978821 216.272583,763.290039 
	C209.431335,750.534302 201.743713,738.255432 194.578949,725.677063 
	C183.583252,706.373352 186.914978,688.644653 198.096375,671.161072 
	C202.045181,664.986572 206.205124,658.920837 211.313492,653.617188 
	C213.596237,651.247131 213.761292,649.067566 212.449387,646.009460 
	C192.260147,598.947083 184.222763,549.702881 187.007294,498.714600 
	C188.390747,473.382263 193.096878,448.543640 200.723312,424.297699 
	C202.778564,417.763672 202.706543,417.740051 209.091370,419.621613 
	C210.828796,420.133667 212.564178,420.652679 214.072540,421.100739 
	C215.246521,422.896332 214.358612,424.293762 213.925781,425.663330 
	C205.761017,451.498810 201.220245,477.917969 200.025452,505.020416 
	C197.159012,570.042297 212.855133,630.153198 247.757462,684.991760 
	C272.830292,724.386292 305.611847,756.238037 345.324402,780.924988 
	C378.351349,801.455933 413.744537,816.322144 452.016571,823.167847 
	C547.389893,840.227356 633.028931,818.211609 707.206360,755.729980 
	C759.108948,712.011047 792.846008,656.427795 808.155884,590.097290 
	C814.667419,561.885925 816.699951,533.233704 814.967102,504.299469 
	C809.946106,420.460907 775.284485,350.655396 713.976807,294.130768 
	C670.957520,254.467667 620.032898,229.787338 562.334961,219.304855 
	C541.091003,215.445282 519.690063,214.581589 498.169434,215.227875 
	C488.684967,215.512665 486.737000,213.898895 483.777527,203.682602 
	C490.611572,201.946548 497.641388,202.297272 504.476898,202.112534 
	C543.526306,201.057159 581.439697,207.452362 618.092773,220.922867 
	C677.077881,242.600677 725.381104,278.847748 763.173401,328.911621 
	C767.875977,335.141083 772.930237,337.642151 780.209717,338.841248 
	C800.934326,342.255127 819.427429,350.425568 833.563110,366.692474 
	C839.390991,373.398956 843.047546,381.316254 844.776123,389.849365 
	C847.184326,401.737183 848.588074,413.812134 849.349365,425.946747 
	C850.107849,438.037201 845.409058,448.010681 837.732788,456.897064 
	C836.970764,457.779144 836.285339,458.822510 835.334106,459.431366 
	C825.412354,465.782501 824.426086,474.607880 826.242737,485.556000 
	C830.355164,510.339111 829.418274,535.267029 826.515137,560.207397 
	C823.200134,588.685791 816.162720,616.136963 805.326233,642.616089 
	C787.507751,686.156250 760.999756,723.767761 726.842163,755.980347 
	C680.558289,799.628784 625.703491,826.607483 563.167480,837.035828 
	C498.585907,847.805298 436.103424,839.571472 376.018982,812.100952 
M206.365692,712.922668 
	C204.926849,721.043945 208.596054,726.296936 215.721542,729.629578 
	C218.878891,731.106201 222.000458,732.659912 225.167511,734.114990 
	C227.089447,734.998047 229.064240,735.010315 230.900787,733.875916 
	C235.929016,730.770447 238.824585,719.221802 235.322845,714.539307 
	C230.354828,707.896057 225.057053,701.481140 219.608383,695.222656 
	C216.396545,691.533447 214.465729,691.931763 212.010376,696.153137 
	C209.138657,701.090393 207.547531,706.496704 206.365692,712.922668 
M240.776489,734.172913 
	C238.866882,737.673950 239.678253,739.525879 243.828827,740.286499 
	C251.884491,741.762695 260.010315,742.218445 268.153564,742.571106 
	C270.114410,742.656006 272.214600,742.706421 273.467194,740.545166 
	C273.369843,740.083679 273.422058,739.479431 273.146210,739.148682 
	C267.284821,732.119873 261.424011,725.089783 255.475967,718.134399 
	C253.241592,715.521606 251.549454,717.637573 250.196747,719.218872 
	C246.497009,723.543884 243.778870,728.526672 240.776489,734.172913 
M804.448364,378.020142 
	C802.627930,378.139984 800.781067,378.108246 798.994202,378.420227 
	C797.016296,378.765564 796.220398,379.820984 797.131653,381.995239 
	C800.335693,389.641022 803.383545,397.352112 806.528809,405.022797 
	C807.072693,406.349152 807.316650,408.089905 809.276306,408.132935 
	C811.145264,408.173981 812.383972,407.122620 813.148621,405.491211 
	C815.050476,401.433441 817.072632,397.424591 818.791321,393.290039 
	C821.975952,385.628632 820.513000,382.061890 813.154297,378.505005 
	C810.570312,377.256012 807.922852,378.131256 804.448364,378.020142 
M821.731567,409.123108 
	C819.971619,413.058624 818.031860,416.926086 816.509094,420.951324 
	C815.302979,424.139496 816.091858,427.274353 818.499817,429.687897 
	C820.395691,431.588196 822.604614,430.419434 824.506531,429.473206 
	C835.682312,423.913025 839.723999,410.079712 833.422119,399.414429 
	C832.130493,397.228607 830.610779,395.802002 827.558594,396.382812 
	C825.759216,400.318024 823.903625,404.376129 821.731567,409.123108 
M273.547363,763.089661 
	C273.024109,753.123474 273.023987,753.124512 263.591248,751.881409 
	C263.099670,751.816528 262.607300,751.614380 262.125397,751.643372 
	C260.048279,751.768677 256.732544,750.063782 256.538177,753.529419 
	C256.346161,756.953003 256.051147,761.991943 259.738617,763.162170 
	C263.845337,764.465576 268.636292,765.937622 273.547363,763.089661 
M238.854980,758.566895 
	C240.556305,758.779419 242.168808,760.169312 244.048889,759.011536 
	C244.089371,758.481506 244.219345,757.989563 244.148361,757.528625 
	C242.981888,749.954468 240.122528,747.345276 232.334503,746.505127 
	C229.656189,746.216248 229.379440,747.618225 229.439468,749.773682 
	C229.598755,755.492920 233.879883,756.859863 238.854980,758.566895 
M811.211975,366.205872 
	C815.351624,360.082428 811.319275,356.258820 800.926270,354.052032 
	C799.222839,360.829834 799.598511,361.674225 805.538818,364.259949 
	C807.194458,364.980652 808.871704,365.651703 811.211975,366.205872 
M202.877411,679.466858 
	C199.423843,685.406921 199.664993,686.992249 204.721985,690.547180 
	C207.368179,688.932007 208.149078,685.884338 209.792053,683.499695 
	C211.608322,680.863403 209.609116,679.067322 208.041306,677.535217 
	C205.981400,675.522217 204.516296,677.200500 202.877411,679.466858 
M841.518372,436.149872 
	C840.972534,433.795166 841.029419,431.252075 839.523682,429.114532 
	C831.706665,435.535980 830.617188,439.148651 834.684570,445.339600 
	C837.822754,443.202972 839.586060,440.023895 841.518372,436.149872 
M780.968506,347.073395 
	C779.756409,346.786102 778.434021,345.869293 777.353943,348.086395 
	C778.814270,350.548187 780.250366,353.331512 782.044922,355.860413 
	C783.145996,357.411865 785.065979,358.031189 786.954590,357.422424 
	C789.020569,356.756531 788.554749,354.814606 788.641235,353.206055 
	C788.910950,348.193207 785.034729,348.028076 780.968506,347.073395 
M287.499084,755.282043 
	C289.750549,766.013977 289.912476,766.131775 298.645844,762.515259 
	C294.309265,760.278625 292.812103,755.104065 287.499084,755.282043 
M831.341431,376.466553 
	C829.272705,373.684937 827.560242,370.547424 824.220398,368.823944 
	C821.075562,376.564209 827.812866,378.537354 831.473328,382.996368 
	C832.148743,380.616241 831.949280,378.891846 831.341431,376.466553 
M218.232590,671.176880 
	C222.680313,667.102600 222.602921,665.424377 217.762741,660.987366 
	C212.183090,664.242065 212.150940,666.363220 218.232590,671.176880 
M195.357285,701.501526 
	C195.518600,704.576111 194.330246,708.080811 198.098007,710.430298 
	C200.310730,706.874695 201.390717,703.676697 198.530243,700.298706 
	C197.227051,698.759827 196.129395,698.552185 195.357285,701.501526 
M215.035049,744.912598 
	C217.817886,744.620972 216.731888,742.585083 216.316910,741.390137 
	C215.444092,738.876953 213.391235,737.850586 210.175537,737.731628 
	C211.046692,740.847717 212.547226,742.855896 215.035049,744.912598 
M821.907227,453.115753 
	C822.260742,454.864075 821.550110,457.074982 824.327087,458.393646 
	C824.893494,455.283569 823.723999,453.058167 822.598877,449.613403 
	C822.187866,451.326019 822.050659,451.897736 821.907227,453.115753 
z"/>
<path fill="#000000" opacity="1.000000" stroke="none" 
	d="
M344.709473,462.943542 
	C356.317230,426.298218 396.203491,423.102203 418.155579,437.765869 
	C429.243103,445.172211 434.784698,455.925629 437.464783,468.626282 
	C440.648499,483.713623 439.724640,498.447235 433.741943,512.648193 
	C425.178772,532.974426 406.204559,541.787476 385.485779,539.593567 
	C356.576569,536.532349 344.038757,516.986023 341.779633,490.970490 
	C340.970734,481.655273 341.771606,472.351440 344.709473,462.943542 
M363.648071,519.846863 
	C370.448639,527.776855 389.946777,532.656067 396.223846,527.824341 
	C380.015717,517.596252 375.179291,502.020020 375.708801,484.059174 
	C376.241699,465.983887 382.115509,450.657806 398.724518,440.708618 
	C385.948364,438.103302 374.468018,439.895721 364.792664,448.852783 
	C355.965302,457.024841 352.588501,467.756256 351.731537,479.290253 
	C350.642700,493.944946 352.850800,507.846893 363.648071,519.846863 
z"/>
<path fill="#000000" opacity="1.000000" stroke="none" 
	d="
M311.648376,556.668213 
	C324.475189,546.325317 345.923920,545.246094 359.285248,554.021423 
	C370.396667,561.319153 370.563141,573.836609 359.300934,580.764099 
	C345.262482,589.399170 330.606689,589.785461 316.153595,581.931824 
	C305.499023,576.142273 303.863892,566.183960 311.648376,556.668213 
z"/>
<path fill="#000000" opacity="1.000000" stroke="none" 
	d="
M757.287048,785.589478 
	C762.066772,776.785828 769.440796,772.574219 778.798340,773.199341 
	C788.156189,773.824524 795.048645,778.868286 798.287720,788.000977 
	C801.634399,797.436707 798.397278,807.938843 790.644836,813.460693 
	C782.184509,819.486755 771.244385,819.287109 763.257141,812.961243 
	C755.264404,806.630859 752.949524,796.457397 757.287048,785.589478 
M782.221069,792.002869 
	C781.599670,794.653931 783.093750,796.026917 785.266663,796.917786 
	C786.367432,797.369080 787.656677,797.589172 788.464783,796.540771 
	C789.451233,795.260925 789.347229,793.485596 788.689209,792.271606 
	C787.162170,789.453918 784.788940,790.102844 782.221069,792.002869 
z"/>
<path fill="#000000" opacity="1.000000" stroke="none" 
	d="
M219.829529,799.209473 
	C226.855362,808.852356 225.688507,820.226990 217.372009,825.903381 
	C210.067780,830.888855 200.653992,830.222717 194.959229,824.317322 
	C188.713547,817.840820 187.973358,807.892517 193.227859,801.049622 
	C198.736496,793.875793 207.998322,791.912231 215.972488,796.302124 
	C217.265427,797.014038 218.379791,798.050232 219.829529,799.209473 
z"/>
<path fill="#000000" opacity="1.000000" stroke="none" 
	d="
M826.285522,344.303955 
	C817.272095,342.390137 811.819580,337.382294 810.768433,330.435913 
	C809.590088,322.649109 812.690979,315.634735 818.908203,312.023712 
	C825.258789,308.335236 833.119751,308.915985 839.011963,313.509003 
	C844.681274,317.928192 846.924927,325.753204 844.552734,332.833130 
	C842.048462,340.307281 835.950073,344.236511 826.285522,344.303955 
z"/>
<path fill="#000000" opacity="1.000000" stroke="none" 
	d="
M497.571777,528.407166 
	C494.342773,529.777649 492.518127,532.121521 490.713898,534.559204 
	C488.215637,537.934692 484.988617,539.155273 481.162903,536.827637 
	C477.677460,534.707031 476.773102,530.600037 479.087646,526.740967 
	C484.042969,518.478882 491.842438,514.385925 501.100708,514.093445 
	C510.226196,513.805298 517.995605,517.609985 523.242188,525.434143 
	C526.386169,530.122681 525.845154,534.643250 522.239136,536.937317 
	C518.834595,539.103271 515.838806,538.031250 512.280701,533.373779 
	C508.291443,528.151978 504.116547,526.674255 497.571777,528.407166 
z"/>
<path fill="#000000" opacity="1.000000" stroke="none" 
	d="
M327.268250,224.043030 
	C365.963196,223.760895 396.697235,248.033081 404.524109,284.673157 
	C413.165131,325.124268 384.509338,366.715851 343.501984,373.241882 
	C303.436157,379.618103 266.381775,354.854034 257.296509,315.629242 
	C247.245514,272.235046 278.218994,228.914124 322.349121,224.633331 
	C323.839813,224.488724 325.321838,224.254547 327.268250,224.043030 
M390.047516,317.497498 
	C402.275909,276.098999 371.067993,241.533981 339.368011,237.663239 
	C295.494110,232.305969 259.596771,268.978149 271.432709,316.965363 
	C276.444336,337.284332 290.701630,350.911041 310.223633,357.541168 
	C345.735626,369.601837 377.764130,350.581299 390.047516,317.497498 
z"/>
<path fill="#000000" opacity="1.000000" stroke="none" 
	d="
M318.642731,261.074951 
	C322.237793,262.551819 325.582428,261.631989 328.869629,261.522522 
	C352.179718,260.746063 368.729370,277.347076 368.337036,301.214417 
	C367.992676,322.163910 349.135986,338.765564 327.414124,337.243500 
	C309.360168,335.978424 293.968414,320.561371 292.690765,302.402130 
	C292.457123,299.080841 292.441650,295.864471 290.095764,293.005707 
	C288.441559,290.989868 289.120850,288.652374 291.016571,286.718994 
	C293.690796,287.057770 295.458344,288.974701 297.578918,290.183533 
	C304.630249,294.203033 312.461029,293.085358 317.559509,287.277374 
	C322.358734,281.810303 322.216949,273.296539 317.292755,267.093689 
	C316.116211,265.611633 313.926697,264.439575 314.906128,262.045380 
	C315.494751,260.606445 316.864502,260.381836 318.642731,261.074951 
z"/>
<path fill="#000000" opacity="1.000000" stroke="none" 
	d="
M321.165894,247.991302 
	C321.513794,248.767151 321.817993,249.261093 321.768341,249.716461 
	C321.400665,253.089111 319.333374,254.371902 316.203491,253.663239 
	C314.266968,253.224747 312.591858,251.706253 313.696198,249.651917 
	C315.249115,246.763031 317.649384,245.027954 321.165894,247.991302 
z"/>
</svg>